<svg width="713" height="198" xmlns="http://www.w3.org/2000/svg" xmlns:svg="http://www.w3.org/2000/svg" version="1.2">

 <g class="layer">
  <title>Layer 1</title>
  <path d="m631,90l0,2l1,1l0,1l1,1l0,2l1,1l0,1l1,1l0,2l1,1l0,1l1,1l0,1l1,1l0,2l1,1l0,1l1,1l0,2l1,1l0,1l1,1l0,2l1,1l0,1l1,1l0,1l1,1l0,2l1,1l0,1l1,1l0,2l1,1l0,1l1,1l0,2l1,1l0,1l1,1l0,1l1,1l0,2l1,1l0,2l1,1l0,1l1,1l0,2l1,1l0,1l1,1l0,1l1,1l0,2l1,1l0,2l1,1l0,1l1,1l0,2l-1,1l0,2l-1,1l0,2l-1,1l0,2l-1,1l0,1l-1,1l0,2l-1,1l0,1l-1,1l0,2l-1,1l0,1l-1,1l0,2l-1,1l0,2l-1,1l0,1l-1,1l0,2l21,0l0,-2l1,-1l0,-1l1,-1l0,-2l1,-1l0,-1l1,-1l0,-2l1,-1l0,-1l1,-1l0,-2l1,-1l0,-1l1,-1l0,-2l1,-1l0,-1l1,-1l0,-2l1,-1l0,-1l1,-1l0,-2l1,-1l0,-1l1,-1l0,-2l1,-1l0,-1l1,-1l0,-2l1,-1l0,-1l1,-1l0,-2l1,-1l0,-1l1,-1l0,-2l1,-1l0,-1l1,-1l0,-2l1,-1l0,-1l1,-1l0,-2l1,-1l0,-1l1,-1l0,-2l1,-1l0,-1l1,-1l0,-2l1,-1l0,-1l1,-1l0,-2l1,-1l0,-1l1,-1l0,-2l1,-1l0,-1l1,-1l0,-2l1,-1l0,-1l1,-1l0,-2l1,-1l0,-1l1,-1l0,-2l1,-1l0,-1l1,-1l0,-1l1,-1l0,-2l1,-1l0,-1l1,-1l0,-1l-22,0l-1,1l0,2l-1,1l0,1l-1,1l0,2l-1,1l0,2l-1,1l0,2l-1,1l0,1l-1,1l0,2l-1,1l0,2l-1,1l0,1l-1,1l0,2l-1,1l0,2l-1,1l0,2l-1,1l0,1l-1,1l0,2l-1,1l0,2l-1,1l0,2l-1,1l0,1l-1,1l0,2l-1,1l-2,-2l0,-2l-1,-1l0,-1l-1,-1l0,-2l-1,-1l0,-1l-1,-1l0,-2l-1,-1l0,-2l-1,-1l0,-2l-1,-1l0,-1l-1,-1l0,-2l-1,-1l0,-2l-1,-1l0,-1l-1,-1l0,-2l-1,-1l0,-2l-1,-1l0,-2l-1,-1l0,-1l-1,-1l0,-2l-1,-1l0,-2l-1,-1l0,-2l-22,0z" fill="white" id="svg_1"/>
  <path d="m193,90l0,2l1,1l0,2l1,1l0,1l1,1l0,1l1,1l0,2l1,1l0,2l1,1l0,2l1,1l0,1l1,1l0,2l1,1l0,1l1,1l0,2l1,1l0,2l1,1l0,1l1,1l0,2l1,1l0,1l1,1l0,2l1,1l0,2l1,1l0,1l1,1l0,2l1,1l0,2l1,1l0,1l1,1l0,2l1,1l0,2l1,1l0,1l1,1l0,2l1,1l0,1l1,1l0,2l1,1l0,2l1,1l0,1l1,1l0,1l21,0l1,-1l0,-2l1,-1l0,-1l1,-1l0,-2l1,-1l0,-2l1,-1l0,-1l1,-1l0,-2l1,-1l0,-2l1,-1l0,-1l1,-1l0,-2l1,-1l0,-2l1,-1l0,-2l1,-1l0,-1l1,-1l0,-2l1,-1l0,-2l1,-1l0,-2l1,-1l0,-1l1,-1l0,-2l1,-1l0,-1l1,-1l0,-2l1,-1l0,-2l1,-1l0,-2l1,-1l0,-1l1,-1l0,-2l1,-1l0,-2l1,-1l0,-1l1,-1l0,-2l1,-1l0,-2l1,-1l0,-1l1,-1l0,-1l-21,0l0,1l-1,1l0,3l-1,1l0,2l-1,1l0,2l-1,1l0,2l-1,1l0,2l-1,1l0,2l-1,1l0,2l-1,1l0,2l-1,1l0,2l-1,1l0,2l-1,1l0,2l-1,1l0,2l-1,1l0,2l-1,1l0,2l-1,1l0,2l-1,1l0,2l-1,1l0,2l-1,1l-1,-1l0,-1l-1,-1l0,-2l-1,-1l0,-1l-1,-1l0,-2l-1,-1l0,-3l-1,-1l0,-2l-1,-1l0,-1l-1,-1l0,-2l-1,-1l0,-2l-1,-1l0,-3l-1,-1l0,-2l-1,-1l0,-2l-1,-1l0,-2l-1,-1l0,-2l-1,-1l0,-2l-1,-1l0,-2l-1,-1l0,-2l-1,-1l0,-2l-1,-1l-21,0z" fill="white" id="svg_2"/>
  <path d="m623,88l-1,1l-4,0l-1,1l-2,0l-1,1l-1,0l-2,2l-1,0l-5,5l0,1l-1,1l0,1l-2,2l-1,-1l0,-5l1,-1l0,-5l-1,-1l-18,0l0,77l20,0l0,-44l1,-1l0,-2l1,-1l0,-2l1,-1l0,-1l6,-6l1,0l2,-2l3,0l1,-1l8,0l0,-17l-2,0l-1,-1l-1,0z" fill="white" id="svg_3"/>
  <path d="m529.57,88.11l-8.57,2.89l-2,0l-1,1l-1,0l-1,1l-1,0l-2,2l-1,0l-3,3l-1,0l-3,3l0,1l-3,3l0,1l-1,1l0,1l-1,1l0,1l-1,1l0,1l-1,1l0,2l-1,1l0,3l-1,1l0,18l1,1l0,3l1,1l0,2l1,1l0,1l1,1l0,1l1,1l0,1l2,2l0,1l8,8l1,0l2,2l1,0l1,1l1,0l1,1l1,0l1,1l2,0l1,1l3,0l1,1l17,0l1,-1l3,0l1,-1l2,0l1,-1l1,0l1,-1l1,0l1,-1l1,0l2,-2l1,0l8,-8l0,-1l2,-2l0,-1l1,-1l0,-1l1,-1l0,-2l1,-1l0,-2l1,-1l0,-3l1,-1l0,-17l-1,-1l0,-3l-1,-1l0,-2l-1,-1l0,-1l-1,-1l0,-2l-2,-2l0,-1l-3,-3l0,-1l-4,-4l-1,0l-3,-3l-1,0l-1,-1l-1,0l-1,-1l-1,0l-1,-1l-2,0l-1,-1l-2,0l-1,-1l-3,0l-1,-1l-12.43,0.11zm-3.17,19.42l10.12,-2.07l9.92,1.49l9.76,6.58l3.51,8.47l0.95,7.99l-0.9,8.98l-3.47,7.09l-8.9,6.75l-10.7,1.06l-10.97,-1.37l-7.14,-5.23l-5.51,-8.07l-1.8,-9.27l0.78,-8.43l6.23,-9l8.12,-4.95z" fill="white" id="svg_4"/>
  <path d="m397,88l-1,1l-3,0l-1,1l-1,0l-1,1l-1,0l-1,1l-1,0l-1,1l-1,0l-5,5l0,1l-1,1l0,1l-1,1l-1,-1l0,-11l-19,0l0,77l19,0l0,-44l1,-1l0,-3l1,-1l0,-1l1,-1l0,-1l1,-1l0,-1l4,-4l1,0l1,-1l1,0l1,-1l2,0l1,-1l7,0l1,1l2,0l1,1l1,0l5,5l0,1l1,1l0,2l1,1l0,49l20,0l0,-53l-1,-1l0,-3l-1,-1l0,-2l-1,-1l0,-2l-1,-1l0,-1l-2,-2l0,-1l-6,-6l-1,0l-1,-1l-1,0l-1,-1l-1,0l-1,-1l-2,0l-1,-1l-3,0l-1,-1l-9,0z" fill="white" id="svg_5"/>
  <path d="m296,90l-1,1l-1,0l-1,1l-1,0l-1,1l-1,0l-1,1l-1,0l-4,4l-1,0l0,1l-5,5l0,1l-2,2l0,1l-1,1l0,2l-1,1l0,1l-1,1l0,3l-1,1l0,3l-1,1l0,14l1,1l0,4l1,1l0,2l1,1l0,1l1,1l0,1l1,1l0,1l1,1l0,1l2,2l0,1l6,6l1,0l2,2l1,0l2,2l1,0l1,1l2,0l1,1l1,0l1,1l3,0l1,1l17,0l1,-1l3,0l1,-1l2,0l1,-1l1,0l1,-1l1,0l2,-2l1,0l8,-8l0,-1l2,-2l0,-1l1,-1l0,-1l1,-1l0,-2l1,-1l-1,-1l-1,0l-1,1l-1,0l-1,-1l-13,0l-7,7l-2,0l-1,1l-2,0l-1,1l-9,0l-1,-1l-2,0l-1,-1l-1,0l-1,-1l-1,0l-5,-5l0,-1l-1,-1l0,-1l-1,-1l0,-2l-1,-1l0,-4l1,-1l54,0l0,-3l1,-1l0,-3l-1,-1l0,-8l-1,-1l0,-3l-1,-1l0,-1l-1,-1l0,-2l-2,-2l0,-1l-1,-1l0,-1l-8,-8l-1,0l-2,-2l-1,0l-1,-1l-1,0l-1,-1l-1,0l-1,-1l-2,0l-1,-1l-4,0l-1,-1l-19,2zm37.39,33.17l-42.83,0.22l2.54,-10.13l6.37,-5.43l5.74,-2.83l9.57,-1l9.16,2.82l6.27,6.48l3.17,9.87z" fill="white" id="svg_6"/>
  <path d="m453,70l0,19l-1,1l-15,0l0,16l1,1l14,0l1,1l0,44l1,1l0,3l1,1l0,1l7,7l1,0l1,1l1,0l1,1l2,0l1,1l5,0l1,1l7,0l1,-1l8,0l-1,-1l0,-13l1,-1l-1,-1l-12,0l-1,-1l-1,0l-1,-1l-1,0l-1,-1l0,-1l-1,-1l0,-40l1,-1l1,1l16,0l0,-17l-17,0l-1,-1l0,-19l-19,0z" fill="white" id="svg_7"/>
  <path d="m21,12l-1,1l-2,0l-1,1l-1,0l-2,2l-1,0l-2,2l0,1l-2,2l0,2l-1,1l0,3l-1,1l0,26l1,1l-1,1l1,1l0,108l1,1l0,2l1,1l0,1l1,1l0,1l7,7l1,0l1,1l1,0l1,1l1,0l1,1l3,0l1,1l55,0l1,-1l84,0l1,-1l2,0l1,-1l1,0l1,-1l1,0l2,-2l1,0l2,-2l0,-1l3,-3l0,-1l1,-1l0,-2l1,-1l0,-2l1,-1l0,-117l-1,-1l0,-1l-1,-1l0,-1l-4,-4l-1,0l-1,-1l-108,0l-1,-1l-1,0l-6,-6l-1,0l-12,-12l-1,0l-3,-3l-1,0l-1,-1l-1,0l-1,-1l-1,0l-1,-1l-18,0zm124,87l1,-1l1,0l1,1l1,0l1,-1l3,0l1,1l2,0l1,1l1,0l1,1l0,1l1,1l0,1l1,1l0,6l-1,1l0,2l-3,3l-1,0l-1,1l-83,0l-1,-1l-1,0l-2,-2l0,-1l-1,-1l0,-9l1,-1l0,-1l3,-3l74,0zm-106,-34l1,-1l115,0l1,1l1,0l3,3l0,2l1,1l0,7l-1,1l0,1l-4,4l-64,0l-1,1l-1,-1l-2,0l-1,1l-1,0l-1,-1l-2,0l-1,1l-29,0l0,49l102,0l1,1l1,0l3,3l0,2l1,1l0,6l-1,1l0,2l-4,4l-2,0l-1,1l-113,0l-1,-1l-2,0l-2,-2l0,-1l-1,-1l0,-1l-1,-1l0,-77l1,-1l0,-1l1,-1l0,-1l1,-1l1,0l1,-1l1,0z" fill="white" id="svg_8"/>
 </g>
</svg>